<svg width="20" height="14" viewBox="0 0 20 14"  xmlns="http://www.w3.org/2000/svg">
<path d="M20 5.97244V11.2502C20.0003 11.9503 19.733 12.6242 19.2527 13.1343C18.7723 13.6444 18.1152 13.9522 17.4153 13.995L17.2471 14H2.75389C2.05271 14 1.37794 13.7329 0.867287 13.2531C0.356635 12.7733 0.0485873 12.117 0.00600623 11.4181L0.00100098 11.2512V5.97244H20ZM17.2471 1.035e-09C17.9483 -1.92004e-05 18.6231 0.267132 19.1337 0.746937C19.6444 1.22674 19.9524 1.88304 19.995 2.58189L20 2.74982V4.47308H1.03654e-09V2.74882C-1.92288e-05 2.04867 0.267527 1.3749 0.748043 0.865006C1.22856 0.355108 1.88582 0.047516 2.58572 0.00499785L2.75289 1.035e-09H17.2471Z" />
</svg>
