<svg width="110" height="110" viewBox="0 0 110 110" fill="none" xmlns="http://www.w3.org/2000/svg">
<g filter="url(#filter0_d_266_747)">
<path d="M34.4939 75.5061C29.0553 70.0675 26 62.6913 26 55C26 47.3087 29.0553 39.9325 34.4939 34.4939C39.9325 29.0553 47.3087 26 55 26C62.6913 26 70.0675 29.0553 75.5061 34.4939C80.9447 39.9325 84 47.3087 84 55C84 62.6913 80.9447 70.0675 75.5061 75.5061C70.0675 80.9447 62.6913 84 55 84C47.3087 84 39.9325 80.9447 34.4939 75.5061Z" fill="#D8F0FF" stroke="white" stroke-width="2"/>
<mask id="mask0_266_747" style="mask-type:alpha" maskUnits="userSpaceOnUse" x="25" y="25" width="60" height="60">
<path d="M25 55C25 62.9565 28.1607 70.5871 33.7868 76.2132C39.4129 81.8393 47.0435 85 55 85C62.9565 85 70.5871 81.8393 76.2132 76.2132C81.8393 70.5871 85 62.9565 85 55C85 47.0435 81.8393 39.4129 76.2132 33.7868C70.5871 28.1607 62.9565 25 55 25C47.0435 25 39.4129 28.1607 33.7868 33.7868C28.1607 39.4129 25 47.0435 25 55H25Z" fill="white"/>
</mask>
<g mask="url(#mask0_266_747)">
<path d="M42.0988 51.6008H69.4568V69.9896H42.0988V51.6008Z" fill="#EBF5FF"/>
<path d="M42.0988 56.3669C42.5867 56.6296 43.1871 56.7422 43.9002 56.7422C45.5514 56.7422 46.8649 56.0666 46.8649 54.4154C46.8649 56.0666 48.1784 56.7422 49.8296 56.7422C51.4809 56.7422 52.7943 56.0666 52.7943 54.4154C52.7943 56.0666 54.1078 56.7422 55.7591 56.7422C57.4103 56.7422 58.7238 56.0666 58.7238 54.4154C58.7238 56.0666 60.0373 56.7422 61.6885 56.7422C63.3397 56.7422 64.6532 56.0666 64.6532 54.4154C64.6532 56.0666 65.9667 56.7422 67.618 56.7422C68.2935 56.7422 68.969 56.6296 69.4944 56.3669V51.188H42.0988V56.3669Z" fill="#BAD2DE"/>
<path d="M69.5319 69.9145C69.3067 69.9145 69.1191 70.2147 69.1191 69.9896V51.4131H42.4741V69.9896C42.4741 70.2147 42.324 70.3648 42.0988 70.3648C41.8737 70.3648 41.7235 70.2147 41.7235 69.9896V51.0378C41.7235 50.8127 41.8737 50.6626 42.0988 50.6626H69.5319C69.7571 50.6626 69.8697 50.8127 69.8697 51.0378V69.5392C69.8697 69.7644 69.7571 69.9145 69.5319 69.9145Z" fill="#002E48"/>
<path d="M70.5827 49.0113H41.048L45.1386 44.4329H66.4921L70.5827 49.0113Z" fill="#169CE8"/>
<path d="M58.1233 44.6956L58.9865 49.4242H64.8033L62.1013 44.3954L58.1233 44.6956ZM52.8694 49.3866L46.8274 49.199L49.642 44.4329L53.9202 44.508L52.8694 49.3866Z" fill="white"/>
<path d="M40.9355 51.9761C40.9355 53.6273 42.2489 54.9408 43.9002 54.9408C45.5514 54.9408 46.8649 53.6273 46.8649 51.9761V48.8987H40.9355V51.9761ZM52.7943 51.9761C52.7943 53.6273 54.1078 54.9408 55.7591 54.9408C57.4103 54.9408 58.7238 53.6273 58.7238 51.9761V48.8987H52.7943V51.9761ZM64.6532 51.9761C64.6532 53.6273 65.9667 54.9408 67.618 54.9408C69.2692 54.9408 70.6953 53.6273 70.6953 51.9761V48.8987H64.6532V51.9761Z" fill="#169CE8"/>
<path d="M46.8274 52.3138C46.8274 53.9651 48.1408 55.2785 49.7921 55.2785C51.4433 55.2785 52.7568 53.9651 52.7568 52.3138V49.2365H46.8274V52.3138ZM58.6863 52.3138C58.6863 53.9651 59.9997 55.2785 61.651 55.2785C63.3022 55.2785 64.6157 53.9651 64.6157 52.3138V49.2365H58.6863V52.3138Z" fill="white"/>
<path d="M45.8892 57.6428H53.0195V70.0271H45.8892V57.6428Z" fill="#C3E5F0"/>
<path d="M55.684 57.6428H65.8166V65.1485H55.684V57.6428Z" fill="#C5ECFF"/>
<path d="M45.2887 42.5565H66.2669V44.3203H45.2887V42.5565Z" fill="#169CE8"/>
<path d="M49.3417 42.5565H53.7325V44.2828H49.3417V42.5565ZM57.7105 42.5565H62.1013V44.2828H57.7105V42.5565Z" fill="white"/>
<path d="M51.5559 64.0226H50.8053C50.5802 64.0226 50.4301 63.8725 50.4301 63.6473C50.4301 63.4221 50.5802 63.272 50.8053 63.272H51.5559C51.7811 63.272 51.9312 63.4221 51.9312 63.6473C51.9312 63.835 51.7436 64.0226 51.5559 64.0226ZM71.7461 70.2898H39.0966C38.8714 70.2898 38.7213 70.1397 38.7213 69.9145C38.7213 69.6893 38.9089 69.5392 39.0966 69.5392H71.7461C71.9712 69.5392 72.1213 69.6893 72.1213 69.9145C72.1213 70.1397 71.9337 70.2898 71.7461 70.2898Z" fill="#002E48"/>
<path opacity="0.5" d="M51.3683 36.8522C51.3683 36.7021 51.2182 36.552 50.993 36.5145L50.28 36.4019C50.0923 36.3644 49.8671 36.1767 49.8671 35.9891L49.7546 35.276C49.717 35.0884 49.5669 34.9008 49.4168 34.9008C49.2667 34.9008 49.1166 35.0509 49.0791 35.276L48.9665 35.9891C48.9289 36.1767 48.7413 36.4019 48.5537 36.4019L47.8782 36.5145C47.6905 36.552 47.5029 36.7021 47.5029 36.8522C47.5029 37.0023 47.653 37.1524 47.8782 37.19L48.5912 37.3026C48.7788 37.3401 49.004 37.5277 49.004 37.7154L49.1166 38.4284C49.1541 38.616 49.3042 38.8037 49.4543 38.8037C49.6044 38.8037 49.7546 38.6536 49.7921 38.4284L49.9047 37.6403C49.9422 37.4527 50.1298 37.265 50.3175 37.2275L50.993 37.19C51.1806 37.1149 51.3683 37.0023 51.3683 36.8522Z" fill="white"/>
<path opacity="0.5" d="M77 55.0534C77 54.9032 76.8499 54.7531 76.6247 54.7156L75.9117 54.603C75.724 54.5655 75.4989 54.3779 75.4989 54.1902L75.3863 53.4772C75.3488 53.2895 75.1987 53.1019 75.0485 53.1019C74.8984 53.1019 74.7483 53.252 74.7108 53.4772L74.5982 54.1902C74.5607 54.3779 74.373 54.603 74.1854 54.603L73.4724 54.7156C73.2847 54.7531 73.0971 54.9032 73.0971 55.0534C73.0971 55.2035 73.2472 55.3536 73.4724 55.3911L74.1854 55.5037C74.373 55.5412 74.5982 55.7289 74.5982 55.9165L74.7108 56.6295C74.7483 56.8172 74.8984 57.0048 75.0485 57.0048C75.1987 57.0048 75.3488 56.8547 75.3863 56.6295L75.4989 55.8414C75.5364 55.6538 75.724 55.4662 75.9117 55.4286L76.5872 55.3911C76.8499 55.3161 77 55.2035 77 55.0534Z" fill="white"/>
<path opacity="0.5" d="M36.8449 57.9055C36.0193 57.9055 35.3438 57.23 35.3438 56.4044C35.3438 55.5788 36.0193 54.9033 36.8449 54.9033C37.6705 54.9033 38.346 55.5788 38.346 56.4044C38.346 57.23 37.6705 57.9055 36.8449 57.9055ZM36.8449 55.6163C36.3945 55.6163 36.0568 55.9916 36.0568 56.4044C36.0568 56.8547 36.4321 57.1925 36.8449 57.1925C37.2952 57.1925 37.633 56.8172 37.633 56.4044C37.633 55.954 37.2952 55.6163 36.8449 55.6163Z" fill="white"/>
<path opacity="0.5" d="M61.6135 40.2673C60.7878 40.2673 60.1123 39.5918 60.1123 38.7662C60.1123 37.9406 60.7878 37.265 61.6135 37.265C62.4391 37.265 63.1146 37.9406 63.1146 38.7662C63.1146 39.5918 62.4391 40.2673 61.6135 40.2673ZM61.6135 37.9781C61.1631 37.9781 60.8254 38.3534 60.8254 38.7662C60.8254 39.2165 61.2007 39.5543 61.6135 39.5543C62.0638 39.5543 62.4016 39.179 62.4016 38.7662C62.4016 38.3158 62.0638 37.9781 61.6135 37.9781Z" fill="white"/>
<path opacity="0.5" d="M72.4966 62.7842C71.671 62.7842 70.9955 62.1087 70.9955 61.283C70.9955 60.4574 71.671 59.7819 72.4966 59.7819C73.3222 59.7819 73.9977 60.4574 73.9977 61.283C73.9977 62.1087 73.3222 62.7842 72.4966 62.7842ZM72.4966 60.495C72.0463 60.495 71.7085 60.8702 71.7085 61.283C71.7085 61.7334 72.0838 62.0711 72.4966 62.0711C72.9469 62.0711 73.2847 61.6959 73.2847 61.283C73.2847 60.8327 72.9469 60.495 72.4966 60.495Z" fill="white"/>
<path d="M55.5714 63.1595C55.4588 63.1595 55.3838 63.1219 55.3087 63.0469C55.1586 62.8968 55.1586 62.6716 55.3087 62.5215L60.1874 57.6428C60.3375 57.4927 60.5627 57.4927 60.7128 57.6428C60.8629 57.7929 60.8629 58.0181 60.7128 58.1682L55.8341 63.0469C55.7591 63.1219 55.684 63.1595 55.5714 63.1595ZM57.5979 65.1485C57.4854 65.1485 57.4103 65.1109 57.3352 65.0359C57.1851 64.8858 57.1851 64.6606 57.3352 64.5105L61.3507 60.6075C61.5009 60.4574 61.726 60.4574 61.8761 60.6075C62.0263 60.7577 62.0263 60.9828 61.8761 61.1329L57.8606 65.0359C57.7856 65.1109 57.7105 65.1485 57.5979 65.1485ZM63.1146 59.7819C63.002 59.7819 62.9269 59.7444 62.8519 59.6693C62.7018 59.5192 62.7018 59.2565 62.8519 59.1064L64.353 57.4927C64.5031 57.3426 64.7658 57.3426 64.9159 57.4927C65.066 57.6428 65.066 57.9055 64.9159 58.0556L63.4148 59.6693C63.3397 59.7444 63.2272 59.7819 63.1146 59.7819ZM61.3507 65.4111C61.2382 65.4111 61.1631 65.3736 61.0881 65.2986C60.9379 65.1484 60.9379 64.8858 61.0881 64.7356L63.6024 62.1087C63.7525 61.9586 63.9777 61.9586 64.1278 62.1087C64.2779 62.2588 64.2779 62.5215 64.1278 62.6716L61.6134 65.2986C61.5384 65.3736 61.4258 65.4111 61.3507 65.4111Z" fill="white"/>
<path d="M65.7415 65.4111H55.6089C55.3838 65.4111 55.2337 65.261 55.2337 65.0359V57.5302C55.2337 57.3051 55.3838 57.1549 55.6089 57.1549H65.7415C65.9667 57.1549 66.1168 57.3051 66.1168 57.5302V65.0359C66.1168 65.261 65.9667 65.4111 65.7415 65.4111ZM55.9842 64.6606H65.3663V57.9055H55.9842V64.6606ZM53.3573 70.2898C53.1321 70.2898 52.982 70.1397 52.982 69.9145V57.9055H46.6022V69.9145C46.6022 70.1397 46.4521 70.2898 46.2269 70.2898C46.0017 70.2898 45.8516 70.1397 45.8516 69.9145V57.5302C45.8516 57.3051 46.0017 57.1549 46.2269 57.1549H53.3573C53.5824 57.1549 53.7325 57.3051 53.7325 57.5302V69.9145C53.7325 70.1397 53.5824 70.2898 53.3573 70.2898ZM70.9955 48.8987C70.9955 48.7862 70.958 48.6736 70.8454 48.5985L66.8674 44.3203V42.1437C66.8674 41.9185 66.7173 41.7684 66.4921 41.7684H45.1011C44.8759 41.7684 44.7258 41.9185 44.7258 42.1437V44.2453L40.7478 48.5985C40.6352 48.6736 40.5977 48.7486 40.5977 48.8987V51.9761C40.5977 53.8525 42.0238 55.3161 43.8626 55.3161C45.1761 55.3161 46.3395 54.528 46.8649 53.4397C47.3903 54.5655 48.4786 55.3161 49.7921 55.3161C51.1056 55.3161 52.344 54.5655 52.9444 53.4772C53.5074 54.5655 54.6707 55.3161 55.9467 55.3161C57.2227 55.3161 58.3485 54.603 58.9114 53.5898C59.3618 54.5655 60.3375 55.2785 61.6134 55.2785C62.8894 55.2785 64.0152 54.5655 64.5782 53.4772C65.1411 54.528 66.2669 55.2785 67.5429 55.2785C69.4193 55.2785 70.9955 53.7399 70.9955 51.9385V49.0864C71.033 49.0489 70.9955 48.9738 70.9955 48.8987ZM66.1168 42.519V44.0201H62.364V42.519H66.1168ZM61.6134 42.519V44.0201H58.2359V42.519H61.6134ZM57.4854 42.519V44.0201H54.1078V42.519H57.4854ZM53.3573 42.519V44.0201H49.6044V42.519H53.3573ZM48.8539 42.519V44.0201H45.4763V42.519H48.8539ZM46.6022 51.9385C46.6022 53.3646 45.2887 54.528 43.8626 54.528C42.4741 54.528 41.3107 53.4021 41.3107 51.9385V49.274H46.6022V51.9385ZM46.6022 48.5235H41.8361L45.2512 44.7707H48.8539L46.6022 48.5235ZM52.6067 51.9385C52.6067 53.177 51.2182 54.5655 49.7921 54.5655C48.366 54.5655 47.3528 53.4021 47.3528 51.9761V49.274H52.6067V51.9385ZM52.6067 48.5235H47.3528L49.6044 44.7707H53.3573L52.6067 48.5235ZM54.1078 44.7707H57.5604L58.1233 48.5235H53.2822L54.1078 44.7707ZM58.2359 51.9385C58.2359 53.3646 57.3352 54.528 55.9092 54.528C54.4831 54.528 53.3573 53.3646 53.3573 51.9385V49.274H58.2359V51.9385ZM58.311 44.7707H61.6134L64.2404 48.5235H58.9114L58.311 44.7707ZM64.2404 51.9761C64.2404 53.4021 63.0395 54.5655 61.6134 54.5655C60.1874 54.5655 58.9865 53.4021 58.9865 51.9761V49.274H64.2404V51.9761ZM62.364 44.7707H66.2669L69.7571 48.5235H64.991L62.364 44.7707ZM70.2449 51.9385C70.2449 53.3271 69.0065 54.528 67.5429 54.528C66.2294 54.528 65.1411 53.5147 64.991 52.2388V49.274H70.2449V51.9385Z" fill="#002E48"/>
</g>
</g>
<defs>
<filter id="filter0_d_266_747" x="0" y="0" width="110" height="110" filterUnits="userSpaceOnUse" color-interpolation-filters="sRGB">
<feFlood flood-opacity="0" result="BackgroundImageFix"/>
<feColorMatrix in="SourceAlpha" type="matrix" values="0 0 0 0 0 0 0 0 0 0 0 0 0 0 0 0 0 0 127 0" result="hardAlpha"/>
<feOffset/>
<feGaussianBlur stdDeviation="12.5"/>
<feComposite in2="hardAlpha" operator="out"/>
<feColorMatrix type="matrix" values="0 0 0 0 0.170833 0 0 0 0 0.7015 0 0 0 0 1 0 0 0 1 0"/>
<feBlend mode="screen" in2="BackgroundImageFix" result="effect1_dropShadow_266_747"/>
<feBlend mode="normal" in="SourceGraphic" in2="effect1_dropShadow_266_747" result="shape"/>
</filter>
</defs>
</svg>
